<svg width="1271" height="1269" viewBox="0 0 1271 1269" fill="none"
    xmlns="http://www.w3.org/2000/svg">
    <path fill-rule="evenodd" clip-rule="evenodd"
        d="M654.971 1.29641C645.945 4.11941 639.722 9.77441 634.772 19.6504C633.199 22.7894 623.5 51.6824 613.219 83.8574C590.404 155.258 562.664 240.981 516.138 383.857C496.705 443.532 449.683 588.207 411.645 705.357C373.606 822.507 327.631 964.032 309.477 1019.86C291.323 1075.68 275.61 1124.69 274.558 1128.77C269.126 1149.83 274.877 1160.01 299.317 1172.62C309.427 1177.83 312.811 1179.07 319.561 1180.03C324.019 1180.66 327.881 1180.96 328.144 1180.69C328.407 1180.43 414.286 916.548 518.987 594.286C643.962 209.626 708.974 8.14441 708.25 7.73841C707.643 7.39841 702.647 6.34241 697.147 5.39241C691.647 4.44341 683.214 2.80941 678.408 1.76141C668.375 -0.424587 660.947 -0.571587 654.971 1.29641ZM543.647 6.44241C532.178 9.47441 522.966 18.6314 517.306 32.6274C515.912 36.0764 498.795 87.8264 479.27 147.627C280.846 755.347 188.076 1042.11 185.028 1057.15C181.2 1076.04 185.663 1084.95 208.444 1103.91C216.61 1110.71 218.783 1111.98 226.297 1114.32C231.002 1115.79 235.077 1116.76 235.351 1116.49C235.975 1115.86 595.7 8.57441 595.38 8.26341C595.252 8.13941 589.279 7.32241 582.107 6.44741C566.166 4.50341 550.99 4.50141 543.647 6.44241ZM748.752 21.6484C742.638 33.8324 750.054 11.1414 497.661 789.857C420.025 1029.39 405.831 1073.1 385.06 1136.57C366.289 1193.93 365.781 1196.15 369.55 1204.45C372.995 1212.04 377.429 1214.61 402.327 1223.51C418.038 1229.13 425.341 1231.31 425.771 1230.51C427.322 1227.64 816.665 27.5424 816.199 27.0754C815.618 26.4954 756.892 11.9474 754.906 11.8914C754.224 11.8724 751.454 16.2634 748.752 21.6484ZM458.147 25.4804C448.797 28.4764 436.872 32.0634 431.647 33.4534C418.846 36.8574 410.571 41.1194 403.793 47.7974C395.449 56.0174 391.913 63.8064 382.651 94.3574C378.149 109.207 365.313 149.257 354.126 183.357C330.968 253.947 226.73 574.674 156.686 790.857C130.757 870.882 107.917 941.307 105.929 947.357C100.015 965.358 100.256 974.167 106.969 985.346C114.122 997.259 146.052 1040.88 146.716 1039.65C147.099 1038.94 221.533 810.238 312.124 531.427C402.714 252.615 477.231 23.4524 477.716 22.1774C478.943 18.9494 478.081 19.0944 458.147 25.4804ZM856.742 47.2304L852.336 48.4074L658.027 646.345C532.364 1033.04 464.096 1244.52 464.788 1244.94C465.377 1245.31 472.449 1247.08 480.503 1248.89C488.557 1250.69 498.071 1253 501.644 1254.01C514.811 1257.75 524.959 1255.82 531.531 1248.34C535.709 1243.58 536.886 1240.78 541.811 1223.86C543.973 1216.43 550.198 1196.86 555.642 1180.36C561.087 1163.86 602.5 1036.51 647.672 897.357C692.843 758.207 749.306 584.282 773.144 510.857C885.635 164.376 906.424 99.9994 908.746 90.9474C912.026 78.1614 910.944 69.9014 905.095 63.0684C900.888 58.1534 894.82 54.9424 880.286 49.9394C867.95 45.6944 864.137 45.2554 856.742 47.2304ZM271.037 116.16C241.948 136.645 217.183 154.078 216.005 154.9C213.9 156.369 214.006 156.553 222.358 165.857C227.03 171.062 232.208 178.007 233.866 181.291C236.612 186.731 236.841 187.934 236.437 194.81C236.073 201.006 235.258 203.924 231.885 211.107C229.626 215.92 227.41 219.855 226.962 219.852C226.514 219.85 222.547 216.909 218.147 213.317C213.747 209.726 207.546 205.482 204.366 203.887C187.47 195.408 178.156 198.054 156.018 217.618C150.58 222.425 143.097 228.581 139.389 231.3C135.681 234.018 132.647 236.534 132.647 236.889C132.647 237.245 141.309 243.773 151.897 251.397C186.207 276.101 201.119 287.502 202.503 290.087C203.695 292.315 203.548 293.688 201.286 301.488C199.872 306.366 197.222 314.781 195.398 320.188L192.081 330.02L153.396 302.438C132.12 287.269 114.349 274.857 113.904 274.857C113.46 274.857 109.167 280.595 104.364 287.607C99.5612 294.619 93.8632 302.832 91.7012 305.857C82.4722 318.773 83.0582 331.92 93.3312 342.438C95.5242 344.683 104.388 351.311 113.029 357.166C130.024 368.683 161.817 392.3 166.128 396.611C168.359 398.842 168.686 399.836 168.142 402.735C167.542 405.931 157.775 436.981 157.157 437.655C157.007 437.819 136.243 423.165 111.016 405.09C85.7882 387.016 63.9102 371.418 62.3982 370.428L59.6492 368.628L56.5092 375.493C54.7822 379.268 50.5422 388.432 47.0882 395.857C39.0032 413.235 37.5992 419.633 39.9252 428.502C41.8112 435.691 45.9652 442.182 51.5142 446.608C53.5122 448.202 60.5472 453.013 67.1472 457.299C89.7202 471.958 131.091 503.53 132.167 506.919C132.535 508.081 132.529 510.679 132.153 512.694C131.449 516.467 122.756 545.075 122.119 545.716C121.923 545.914 99.4132 530.024 72.0972 510.407C44.7822 490.789 22.2522 474.919 22.0322 475.139C21.8122 475.359 20.0842 482.28 18.1922 490.519C16.3012 498.757 13.5222 509.066 12.0172 513.428C9.9162 519.516 9.2842 523.214 9.2942 529.357C9.3202 545.808 16.4562 555.685 39.0332 570.519C64.4102 587.193 97.2862 612.57 98.1932 616.186C98.7682 618.474 88.2972 652.337 86.7122 653.317C86.2992 653.572 68.0672 640.947 46.1962 625.26C24.3252 609.574 6.3102 596.879 6.1632 597.049C6.0162 597.218 4.6232 604.107 3.0672 612.357C-0.796804 632.842 -1.0288 653.573 2.4782 664.857C7.8642 682.187 18.0662 693.513 36.7572 702.912C44.6532 706.882 58.2352 717.003 61.0382 721.005C61.9232 722.268 62.6472 724.521 62.6472 726.011C62.6472 728.743 53.0392 759.733 51.7732 761.085C51.3982 761.485 45.4792 758.487 38.6192 754.423C24.4782 746.044 26.8732 746.057 15.5242 754.298L9.9022 758.38L32.6772 829.188C45.2032 868.132 55.6082 900.135 55.8002 900.305C55.9912 900.476 61.2662 900.332 67.5222 899.986L78.8982 899.357L205.281 510.357C274.792 296.407 333.855 114.512 336.531 106.146L341.398 90.9354L333.834 85.6464C329.674 82.7374 325.743 80.0324 325.099 79.6364C324.402 79.2074 302.492 94.0104 271.037 116.16ZM764.125 669.488C659.637 991.035 573.999 1254.75 573.818 1255.52C573.371 1257.42 584.568 1262.39 594.782 1264.83C607.937 1267.97 625.112 1269.18 647.147 1268.52C674.913 1267.69 693.721 1264.88 720.612 1257.55L729.077 1255.24L709.725 1241.3C680.808 1220.47 665.632 1208.68 663.834 1205.64C662.285 1203.03 662.441 1202.27 668.038 1185.39C671.235 1175.74 674.252 1167.6 674.742 1167.3C675.506 1166.83 694.136 1180.08 756.075 1225.14C790.758 1250.37 810.157 1251.04 847.694 1228.29C854.543 1224.14 860.487 1220.41 860.904 1220C862.135 1218.77 842.221 1203.47 789.147 1164.86C715.378 1111.19 700.748 1100.17 699.443 1097.31C698.506 1095.25 698.633 1093.32 700.084 1087.55C703.032 1075.83 709.052 1059.36 710.389 1059.36C711.073 1059.36 747.239 1085.23 790.758 1116.86C891.04 1189.73 891.676 1190.18 900.647 1194.05C907.414 1196.96 909.129 1197.28 918.195 1197.32C927.818 1197.36 928.56 1197.2 935.695 1193.65C944.87 1189.08 952.897 1182.53 962.478 1171.79C969.535 1163.88 969.74 1163.51 967.978 1161.83C966.971 1160.88 929.697 1133.63 885.147 1101.29C766.55 1015.18 738.175 994.273 735.328 990.889L732.775 987.855L734.727 980.606C737.122 971.715 743.65 952.677 744.715 951.484C745.673 950.409 737.803 944.85 828.147 1010.42C973.946 1116.25 990.195 1127.88 997.393 1131.5C1003.2 1134.43 1006.08 1135.24 1011.89 1135.6C1018.3 1135.98 1019.72 1135.73 1024.02 1133.41C1029.87 1130.26 1037.65 1124.31 1047.18 1115.71C1051.05 1112.21 1056.56 1107.4 1059.43 1105.01C1062.3 1102.63 1064.65 1100.35 1064.65 1099.95C1064.65 1098.52 1042.61 1082.08 962.647 1023.84C865.27 952.914 786.297 895.182 778.456 889.184C775.325 886.789 771.86 883.561 770.756 882.009C768.845 879.326 768.819 878.875 770.221 872.773C772 865.031 778.576 844.706 779.699 843.479C780.731 842.352 771.281 835.619 929.147 949.971C1003.95 1004.15 1068.07 1050.46 1071.65 1052.88C1088.09 1064 1099.12 1064.63 1109.76 1055.07C1112.46 1052.64 1118.07 1045.99 1122.23 1040.28C1127.98 1032.39 1130.33 1028.15 1132.06 1022.54L1134.33 1015.17L1118.24 1003.32C1109.39 996.799 1057.6 959.08 1003.15 919.499C821.477 787.435 808.866 778.086 806.161 773.471C803.797 769.437 803.764 769.117 805.121 763.331C806.476 757.557 813.11 737.673 814.542 735.09C815.025 734.22 869.522 773.23 988.696 859.755C1088.86 932.48 1162.53 985.321 1163.05 984.82C1163.55 984.343 1171.51 971.242 1180.74 955.708L1197.52 927.463L1183.83 917.367C1160.13 899.878 1088.73 847.846 981.147 769.653C842.625 668.972 842.567 668.929 840.31 665.041C838.438 661.815 838.434 661.545 840.167 655.041C841.691 649.321 849.405 626.937 850.155 626.059C850.295 625.895 932.903 685.641 1033.73 758.826C1158.43 849.344 1217.27 891.486 1217.73 890.624C1218.65 888.888 1258.65 758.586 1258.65 757.301C1258.65 756.735 1255.61 754.517 1251.9 752.372C1248.18 750.227 1244.22 747.887 1243.08 747.172C1241.2 745.986 1239.57 746.94 1224.58 758.007C1202.36 774.413 1191.51 781.474 1187.27 782.268C1184.43 782.801 1182.88 782.401 1179.44 780.248C1173.4 776.468 1153.65 761.672 1153.65 760.927C1153.65 760.586 1173.74 745.694 1198.3 727.833C1244.25 694.417 1254.91 685.693 1261.02 676.48C1272.67 658.935 1272.96 641.43 1262.22 604.703L1260.56 599.049L1244.85 609.758C1236.22 615.648 1210.83 633.822 1188.45 650.146C1122.35 698.345 1101.39 713.148 1096.99 714.756C1093.12 716.169 1092.59 716.139 1089.19 714.315C1087.18 713.238 1080.12 708.356 1073.51 703.466C1061.95 694.922 1061.56 694.507 1063.32 692.827C1064.32 691.866 1095.52 668.842 1132.65 641.662C1228.14 571.752 1246.64 557.86 1250.89 552.889C1261.19 540.849 1261.64 532.552 1253.77 499.857C1250.92 488.032 1248.26 477.537 1247.85 476.535C1246.95 474.331 1242.2 477.634 1146.65 546.957C1036.65 626.755 1009.32 646.198 1004.89 647.804C1000.84 649.273 1000.43 649.24 996.39 647.094C993.154 645.377 972.667 630.854 969.647 628.137C969.372 627.889 970.326 626.672 971.766 625.432C973.207 624.192 1023.16 587.696 1082.77 544.329C1215.61 447.683 1212.88 449.709 1219.8 442.719C1225.94 436.515 1229.65 428.724 1229.65 422.03C1229.65 416.404 1227.08 407.623 1221.87 395.423C1216.57 383.001 1214.49 380.125 1208.07 376.363L1203.52 373.699L1195.14 378.98C1190.52 381.885 1153.09 408.729 1111.95 438.633C902.36 590.979 912.459 584.108 904.089 580.041C899.968 578.039 880.998 564.19 878.879 561.637C877.581 560.072 877.808 559.902 1008.15 464.982C1143.95 366.082 1167.94 348.323 1172.96 342.949C1179.12 336.364 1182.62 328.901 1182.64 322.329C1182.65 315.63 1178.27 306.702 1167.71 291.88C1163.21 285.567 1158.62 278.927 1157.5 277.124C1156.31 275.189 1155.01 274.132 1154.34 274.546C1153.72 274.932 1097.68 315.465 1029.83 364.62C961.968 413.774 906.273 453.817 906.061 453.604C905.614 453.157 911.99 432.561 916.663 419.357C921.045 406.974 927.715 394.369 933.195 388.115C938.587 381.961 963.137 363.269 1013.49 326.978C1075.5 282.285 1130.65 241.628 1130.65 240.6C1130.65 240.059 1126.91 235.283 1122.34 229.987C1117.77 224.69 1112.61 218.332 1110.86 215.857C1106.29 209.365 1104.65 207.608 1099.39 203.595C1092.81 198.574 1085.77 197.197 1077.51 199.314C1069.96 201.247 1066.73 203.132 1055.15 212.35C1037.8 226.152 962.747 280.29 961.996 279.539C961.48 279.024 968.391 253.691 971.198 245.81C972.658 241.711 975.939 234.307 978.49 229.357C982.374 221.82 984.918 218.565 994.137 209.332C1000.41 203.047 1012.46 192.76 1022.15 185.405C1042.65 169.843 1055.82 158.886 1055.43 157.719C1055.13 156.805 955.627 84.8574 954.668 84.8574C954.357 84.8574 868.613 347.941 764.125 669.488Z"
        fill="#3DDE58" />
</svg>
